# xmcd
#
# Track frame offsets:
#	150
#	13310
#	26665
#	36285
#	46872
#	56155
#	65377
#	76405
#	92985
#	106145
#	117817
#	132525
#	142490
#	156217
#	169007
#	182670
#	193545
#	204737
#	220992
#	229795
#	242662
#	258190
#	268467
#	282280
#	294575
#
# Disc length: 4093 seconds
#
# Revision: 4
# Processed by: cddbd v1.5.2PL0 Copyright (c) Steve Scherf et al.
# Submitted via: audiograbber 1.83.01
#
DISCID=820ffb19
DTITLE=Various Artist - 50 Years Of Bluegrass Hits Volume 1 Disc 2
DYEAR=1985
DGENRE=Bluegrass
TTITLE0=Joe Maphis - Night Train to Memphis
TTITLE1=The Osborne Brothers and Mac Wiseman - Mother Maybelle
TTITLE2=Josh Graves - Earl's Breakdown
TTITLE3=Curly Seckler and Nashville Grass - Bringin' in the Georgia Mail
TTITLE4=Joe Maphis and Fiddlin' Red Herron - Devil's Dream
TTITLE5=Patty Stoneman - Blue Ridge Mountain Blues
TTITLE6=Bluegrass Cardinals - Angels Rock Me to Sleep
TTITLE7=Mac Wiseman and The Osborne Brothers - Don't Let Your Sweet Love Die
TTITLE8=Rose Lee Maphis - Blue Moon of Kentucky
TTITLE9=Wynn Osborne and his Bluegrass Playboys - Dear Old Dixie
TTITLE10=Merle Travis - Peach Pickin' Time in Georgia
TTITLE11=Lester Flatt and his Nashville Grass - The Ballad of Jed Clampett
TTITLE12=The Osborne Brothers - Rank Strangers to Me
TTITLE13=Jim and Jesse and the Virginia Boys - Johnny B. Goode
TTITLE14=The Grandpa Jones Family - The Banks of the Ohio
TTITLE15=Benny Martin and Bobby Osborne - Dim Lights, Thick Smoke
TTITLE16=Don Reno and  Arthur Smith - Remington Ride
TTITLE17=Mac Wiseman - Bringing Mary Home
TTITLE18=Carl Story and his Ramblin' Mountaineers - Shout and Shine
TTITLE19=Benny Martin - Wabash Cannonball
TTITLE20=Joe Maphis - Me and Ol' Merle
TTITLE21=Jim and Jesse and the Virginia Boys - Gosh, I Miss You All the Time
TTITLE22=The Pinnacle Boys - Cheyenne
TTITLE23=The Stonemans - Little Old Log Cabin in the Lane
TTITLE24=Betty Jean Robinson and the Nashville Grass - Unclouded Day
EXTD=CD-9034
EXTT0=B. Smith, M. Hughes, O. Bradley
EXTT1=J. Maphis, R. L. Maphis
EXTT2=Earl Scruggs
EXTT3=F. Rose
EXTT4=M. Christian
EXTT5=M. Christian
EXTT6=M. Christian
EXTT7=C. VanNess
EXTT8=Bill Monroe
EXTT9=Lester Flatt, Earl Scruggs
EXTT10=J. Rodgers, C. McMichen
EXTT11=P. Henning
EXTT12=A. E. Brumley
EXTT13=C. Berry
EXTT14=M. Christian
EXTT15=J. Maphis, R. Lee, M. Fidler
EXTT16=H. Remmington
EXTT17=J. Duffey, C. Mank, J. Kingston
EXTT18=M. Christian
EXTT19=M. Christian
EXTT20=J. Maphis
EXTT21=J. Long
EXTT22=Bill Monroe
EXTT23=M. Christian
EXTT24=M. Christian
PLAYORDER=
